<svg t="1594805025930" class="icon" viewBox="0 0 1024 1024" version="1.1" xmlns="http://www.w3.org/2000/svg" p-id="10768" width="200" height="200"><path d="M498.688-0.512c-1.53600001 0-3.072 0-5.12 0.512-6.144 1.024-11.776 4.608-15.36 9.216l-258.048 258.048c-10.24 10.24-10.24 26.112 0 36.352s26.112 10.24 36.352 0l216.576-216.576 0 912.384c0 13.312 11.264 24.576 25.6 24.576s25.6-10.752 25.6-24.576l0-912.384 216.576 216.576c10.24 10.24 26.112 10.24 36.352 0 5.12-5.12 7.67999999-11.776 7.68-17.92s-2.56-13.312-7.68-17.92L519.168 9.728c-3.584-4.608-9.216-8.192-15.36-9.216-2.048-1.024-3.584-1.024-5.12-1.024z" p-id="10769" fill="#e6e6e6"></path></svg>